<mxfile host="app.diagrams.net" modified="2024-04-05T01:37:07.905Z" agent="Mozilla/5.0 (Windows NT 10.0; Win64; x64) AppleWebKit/537.36 (KHTML, like Gecko) Chrome/123.0.0.0 Safari/537.36" etag="PcuBEk4KEKuJqgIMs6Vc" version="24.0.8" type="github">
  <diagram name="Trang-1" id="mnkqqtm8u0z1iL__M78p">
    <mxGraphModel dx="2327" dy="746" grid="1" gridSize="10" guides="1" tooltips="1" connect="1" arrows="1" fold="1" page="1" pageScale="1" pageWidth="827" pageHeight="1169" math="0" shadow="0">
      <root>
        <mxCell id="0" />
        <mxCell id="1" parent="0" />
        <mxCell id="chgxF6GkIX4FiYMFg66j-1" value="&lt;font style=&quot;font-size: 17px;&quot;&gt;Đăng nhập&lt;/font&gt;" style="rounded=0;whiteSpace=wrap;html=1;fillColor=#dae8fc;strokeColor=#6c8ebf;" vertex="1" parent="1">
          <mxGeometry x="400" y="50" width="120" height="60" as="geometry" />
        </mxCell>
        <mxCell id="chgxF6GkIX4FiYMFg66j-41" value="" style="edgeStyle=orthogonalEdgeStyle;rounded=0;orthogonalLoop=1;jettySize=auto;html=1;endArrow=none;endFill=0;" edge="1" parent="1" source="chgxF6GkIX4FiYMFg66j-2" target="chgxF6GkIX4FiYMFg66j-31">
          <mxGeometry relative="1" as="geometry" />
        </mxCell>
        <mxCell id="chgxF6GkIX4FiYMFg66j-42" style="edgeStyle=orthogonalEdgeStyle;rounded=0;orthogonalLoop=1;jettySize=auto;html=1;entryX=0.5;entryY=0;entryDx=0;entryDy=0;endArrow=none;endFill=0;" edge="1" parent="1" source="chgxF6GkIX4FiYMFg66j-2" target="chgxF6GkIX4FiYMFg66j-30">
          <mxGeometry relative="1" as="geometry" />
        </mxCell>
        <mxCell id="chgxF6GkIX4FiYMFg66j-43" style="edgeStyle=orthogonalEdgeStyle;rounded=0;orthogonalLoop=1;jettySize=auto;html=1;entryX=0.5;entryY=0;entryDx=0;entryDy=0;endArrow=none;endFill=0;" edge="1" parent="1" source="chgxF6GkIX4FiYMFg66j-2" target="chgxF6GkIX4FiYMFg66j-29">
          <mxGeometry relative="1" as="geometry" />
        </mxCell>
        <mxCell id="chgxF6GkIX4FiYMFg66j-44" style="edgeStyle=orthogonalEdgeStyle;rounded=0;orthogonalLoop=1;jettySize=auto;html=1;entryX=0.5;entryY=0;entryDx=0;entryDy=0;endArrow=none;endFill=0;" edge="1" parent="1" source="chgxF6GkIX4FiYMFg66j-2" target="chgxF6GkIX4FiYMFg66j-28">
          <mxGeometry relative="1" as="geometry" />
        </mxCell>
        <mxCell id="chgxF6GkIX4FiYMFg66j-45" style="edgeStyle=orthogonalEdgeStyle;rounded=0;orthogonalLoop=1;jettySize=auto;html=1;entryX=0.5;entryY=0;entryDx=0;entryDy=0;endArrow=none;endFill=0;" edge="1" parent="1" source="chgxF6GkIX4FiYMFg66j-2" target="chgxF6GkIX4FiYMFg66j-32">
          <mxGeometry relative="1" as="geometry" />
        </mxCell>
        <mxCell id="chgxF6GkIX4FiYMFg66j-46" style="edgeStyle=orthogonalEdgeStyle;rounded=0;orthogonalLoop=1;jettySize=auto;html=1;entryX=0.5;entryY=0;entryDx=0;entryDy=0;endArrow=none;endFill=0;" edge="1" parent="1" source="chgxF6GkIX4FiYMFg66j-2" target="chgxF6GkIX4FiYMFg66j-33">
          <mxGeometry relative="1" as="geometry" />
        </mxCell>
        <mxCell id="chgxF6GkIX4FiYMFg66j-47" style="edgeStyle=orthogonalEdgeStyle;rounded=0;orthogonalLoop=1;jettySize=auto;html=1;entryX=0.5;entryY=0;entryDx=0;entryDy=0;endArrow=none;endFill=0;" edge="1" parent="1" source="chgxF6GkIX4FiYMFg66j-2" target="chgxF6GkIX4FiYMFg66j-34">
          <mxGeometry relative="1" as="geometry" />
        </mxCell>
        <mxCell id="chgxF6GkIX4FiYMFg66j-2" value="Trang chủ" style="rounded=0;whiteSpace=wrap;html=1;fontSize=19;fillColor=#fff2cc;strokeColor=#d6b656;" vertex="1" parent="1">
          <mxGeometry x="400" y="150" width="120" height="60" as="geometry" />
        </mxCell>
        <mxCell id="chgxF6GkIX4FiYMFg66j-49" value="" style="edgeStyle=orthogonalEdgeStyle;rounded=0;orthogonalLoop=1;jettySize=auto;html=1;endArrow=none;endFill=0;" edge="1" parent="1" source="chgxF6GkIX4FiYMFg66j-11" target="chgxF6GkIX4FiYMFg66j-28">
          <mxGeometry relative="1" as="geometry" />
        </mxCell>
        <mxCell id="chgxF6GkIX4FiYMFg66j-11" value="Tìm Kiếm khách hàng" style="ellipse;whiteSpace=wrap;html=1;fontSize=17;" vertex="1" parent="1">
          <mxGeometry x="-120" y="390" width="120" height="80" as="geometry" />
        </mxCell>
        <mxCell id="chgxF6GkIX4FiYMFg66j-50" style="edgeStyle=orthogonalEdgeStyle;rounded=0;orthogonalLoop=1;jettySize=auto;html=1;entryX=0.5;entryY=1;entryDx=0;entryDy=0;endArrow=none;endFill=0;" edge="1" parent="1" source="chgxF6GkIX4FiYMFg66j-12" target="chgxF6GkIX4FiYMFg66j-11">
          <mxGeometry relative="1" as="geometry" />
        </mxCell>
        <mxCell id="chgxF6GkIX4FiYMFg66j-12" value="Hiển thị danh sách khách hàng" style="ellipse;whiteSpace=wrap;html=1;fontSize=17;" vertex="1" parent="1">
          <mxGeometry x="-120" y="530" width="120" height="80" as="geometry" />
        </mxCell>
        <mxCell id="chgxF6GkIX4FiYMFg66j-51" style="edgeStyle=orthogonalEdgeStyle;rounded=0;orthogonalLoop=1;jettySize=auto;html=1;entryX=0.5;entryY=1;entryDx=0;entryDy=0;endArrow=none;endFill=0;" edge="1" parent="1" source="chgxF6GkIX4FiYMFg66j-13" target="chgxF6GkIX4FiYMFg66j-29">
          <mxGeometry relative="1" as="geometry" />
        </mxCell>
        <mxCell id="chgxF6GkIX4FiYMFg66j-13" value="Danh Sách tài khoản" style="ellipse;whiteSpace=wrap;html=1;fontSize=20;" vertex="1" parent="1">
          <mxGeometry x="40" y="390" width="120" height="80" as="geometry" />
        </mxCell>
        <mxCell id="chgxF6GkIX4FiYMFg66j-55" value="" style="edgeStyle=orthogonalEdgeStyle;rounded=0;orthogonalLoop=1;jettySize=auto;html=1;endArrow=none;endFill=0;" edge="1" parent="1" source="chgxF6GkIX4FiYMFg66j-14" target="chgxF6GkIX4FiYMFg66j-30">
          <mxGeometry relative="1" as="geometry" />
        </mxCell>
        <mxCell id="chgxF6GkIX4FiYMFg66j-14" value="Thêm nhân viên" style="ellipse;whiteSpace=wrap;html=1;fontSize=21;" vertex="1" parent="1">
          <mxGeometry x="220" y="390" width="120" height="80" as="geometry" />
        </mxCell>
        <mxCell id="chgxF6GkIX4FiYMFg66j-54" style="edgeStyle=orthogonalEdgeStyle;rounded=0;orthogonalLoop=1;jettySize=auto;html=1;endArrow=none;endFill=0;" edge="1" parent="1" source="chgxF6GkIX4FiYMFg66j-15" target="chgxF6GkIX4FiYMFg66j-14">
          <mxGeometry relative="1" as="geometry" />
        </mxCell>
        <mxCell id="chgxF6GkIX4FiYMFg66j-15" value="Sửa Nhân viên" style="ellipse;whiteSpace=wrap;html=1;fontSize=20;" vertex="1" parent="1">
          <mxGeometry x="220" y="505" width="120" height="80" as="geometry" />
        </mxCell>
        <mxCell id="chgxF6GkIX4FiYMFg66j-53" style="edgeStyle=orthogonalEdgeStyle;rounded=0;orthogonalLoop=1;jettySize=auto;html=1;endArrow=none;endFill=0;" edge="1" parent="1" source="chgxF6GkIX4FiYMFg66j-16" target="chgxF6GkIX4FiYMFg66j-15">
          <mxGeometry relative="1" as="geometry" />
        </mxCell>
        <mxCell id="chgxF6GkIX4FiYMFg66j-16" value="Hiển thị danh sách nhân viên" style="ellipse;whiteSpace=wrap;html=1;fontSize=18;" vertex="1" parent="1">
          <mxGeometry x="220" y="630" width="120" height="80" as="geometry" />
        </mxCell>
        <mxCell id="chgxF6GkIX4FiYMFg66j-58" style="edgeStyle=orthogonalEdgeStyle;rounded=0;orthogonalLoop=1;jettySize=auto;html=1;entryX=0.5;entryY=1;entryDx=0;entryDy=0;endArrow=none;endFill=0;" edge="1" parent="1" source="chgxF6GkIX4FiYMFg66j-18" target="chgxF6GkIX4FiYMFg66j-31">
          <mxGeometry relative="1" as="geometry" />
        </mxCell>
        <mxCell id="chgxF6GkIX4FiYMFg66j-18" value="Danh Sách sản phẩm" style="ellipse;whiteSpace=wrap;html=1;fontSize=18;" vertex="1" parent="1">
          <mxGeometry x="400" y="390" width="120" height="80" as="geometry" />
        </mxCell>
        <mxCell id="chgxF6GkIX4FiYMFg66j-57" style="edgeStyle=orthogonalEdgeStyle;rounded=0;orthogonalLoop=1;jettySize=auto;html=1;entryX=0.5;entryY=1;entryDx=0;entryDy=0;endArrow=none;endFill=0;" edge="1" parent="1" source="chgxF6GkIX4FiYMFg66j-19" target="chgxF6GkIX4FiYMFg66j-18">
          <mxGeometry relative="1" as="geometry" />
        </mxCell>
        <mxCell id="chgxF6GkIX4FiYMFg66j-19" value="thêm sản phẩm" style="ellipse;whiteSpace=wrap;html=1;fontSize=19;" vertex="1" parent="1">
          <mxGeometry x="400" y="505" width="120" height="80" as="geometry" />
        </mxCell>
        <mxCell id="chgxF6GkIX4FiYMFg66j-56" style="edgeStyle=orthogonalEdgeStyle;rounded=0;orthogonalLoop=1;jettySize=auto;html=1;endArrow=none;endFill=0;" edge="1" parent="1" source="chgxF6GkIX4FiYMFg66j-20" target="chgxF6GkIX4FiYMFg66j-19">
          <mxGeometry relative="1" as="geometry" />
        </mxCell>
        <mxCell id="chgxF6GkIX4FiYMFg66j-20" value="thuộc tính sản phẩm" style="ellipse;whiteSpace=wrap;html=1;fontSize=20;" vertex="1" parent="1">
          <mxGeometry x="400" y="630" width="120" height="80" as="geometry" />
        </mxCell>
        <mxCell id="chgxF6GkIX4FiYMFg66j-59" style="edgeStyle=orthogonalEdgeStyle;rounded=0;orthogonalLoop=1;jettySize=auto;html=1;entryX=0.5;entryY=1;entryDx=0;entryDy=0;endArrow=none;endFill=0;" edge="1" parent="1" source="chgxF6GkIX4FiYMFg66j-22" target="chgxF6GkIX4FiYMFg66j-36">
          <mxGeometry relative="1" as="geometry" />
        </mxCell>
        <mxCell id="chgxF6GkIX4FiYMFg66j-22" value="Dt tháng" style="ellipse;whiteSpace=wrap;html=1;fontSize=21;" vertex="1" parent="1">
          <mxGeometry x="570" y="505" width="120" height="80" as="geometry" />
        </mxCell>
        <mxCell id="chgxF6GkIX4FiYMFg66j-65" style="edgeStyle=orthogonalEdgeStyle;rounded=0;orthogonalLoop=1;jettySize=auto;html=1;entryX=0.5;entryY=1;entryDx=0;entryDy=0;endArrow=none;endFill=0;" edge="1" parent="1" source="chgxF6GkIX4FiYMFg66j-24" target="chgxF6GkIX4FiYMFg66j-33">
          <mxGeometry relative="1" as="geometry" />
        </mxCell>
        <mxCell id="chgxF6GkIX4FiYMFg66j-24" value="Tạo mục tìm kiếm" style="ellipse;whiteSpace=wrap;html=1;fontSize=18;" vertex="1" parent="1">
          <mxGeometry x="750" y="390" width="120" height="80" as="geometry" />
        </mxCell>
        <mxCell id="chgxF6GkIX4FiYMFg66j-61" style="edgeStyle=orthogonalEdgeStyle;rounded=0;orthogonalLoop=1;jettySize=auto;html=1;endArrow=none;endFill=0;" edge="1" parent="1" source="chgxF6GkIX4FiYMFg66j-25" target="chgxF6GkIX4FiYMFg66j-24">
          <mxGeometry relative="1" as="geometry" />
        </mxCell>
        <mxCell id="chgxF6GkIX4FiYMFg66j-25" value="Danh sách tìm kiếm" style="ellipse;whiteSpace=wrap;html=1;fontSize=19;" vertex="1" parent="1">
          <mxGeometry x="750" y="505" width="120" height="80" as="geometry" />
        </mxCell>
        <mxCell id="chgxF6GkIX4FiYMFg66j-66" style="edgeStyle=orthogonalEdgeStyle;rounded=0;orthogonalLoop=1;jettySize=auto;html=1;endArrow=none;endFill=0;" edge="1" parent="1" source="chgxF6GkIX4FiYMFg66j-27" target="chgxF6GkIX4FiYMFg66j-34">
          <mxGeometry relative="1" as="geometry" />
        </mxCell>
        <mxCell id="chgxF6GkIX4FiYMFg66j-27" value="ngày tạo hóa đơn" style="ellipse;whiteSpace=wrap;html=1;fontSize=19;" vertex="1" parent="1">
          <mxGeometry x="920" y="390" width="120" height="80" as="geometry" />
        </mxCell>
        <mxCell id="chgxF6GkIX4FiYMFg66j-28" value="Khách Hàng" style="rounded=0;whiteSpace=wrap;html=1;fontSize=19;fillColor=#e1d5e7;strokeColor=#9673a6;" vertex="1" parent="1">
          <mxGeometry x="-120" y="280" width="120" height="60" as="geometry" />
        </mxCell>
        <mxCell id="chgxF6GkIX4FiYMFg66j-29" value="Tài Khoản" style="rounded=0;whiteSpace=wrap;html=1;fontSize=19;fillColor=#e1d5e7;strokeColor=#9673a6;" vertex="1" parent="1">
          <mxGeometry x="40" y="280" width="120" height="60" as="geometry" />
        </mxCell>
        <mxCell id="chgxF6GkIX4FiYMFg66j-30" value="Nhân Viên&lt;span style=&quot;white-space: pre; font-size: 17px;&quot;&gt;&#x9;&lt;/span&gt;" style="rounded=0;whiteSpace=wrap;html=1;fontSize=17;fillColor=#e1d5e7;strokeColor=#9673a6;" vertex="1" parent="1">
          <mxGeometry x="220" y="280" width="120" height="60" as="geometry" />
        </mxCell>
        <mxCell id="chgxF6GkIX4FiYMFg66j-31" value="Sản Phẩm" style="rounded=0;whiteSpace=wrap;html=1;fontSize=19;fillColor=#e1d5e7;strokeColor=#9673a6;" vertex="1" parent="1">
          <mxGeometry x="400" y="280" width="120" height="60" as="geometry" />
        </mxCell>
        <mxCell id="chgxF6GkIX4FiYMFg66j-32" value="Thống Kê" style="rounded=0;whiteSpace=wrap;html=1;fontSize=19;fillColor=#e1d5e7;strokeColor=#9673a6;" vertex="1" parent="1">
          <mxGeometry x="570" y="280" width="120" height="60" as="geometry" />
        </mxCell>
        <mxCell id="chgxF6GkIX4FiYMFg66j-33" value="Tìm Kiếm" style="rounded=0;whiteSpace=wrap;html=1;fontSize=19;fillColor=#e1d5e7;strokeColor=#9673a6;" vertex="1" parent="1">
          <mxGeometry x="750" y="280" width="120" height="60" as="geometry" />
        </mxCell>
        <mxCell id="chgxF6GkIX4FiYMFg66j-34" value="Hóa Đơn" style="rounded=0;whiteSpace=wrap;html=1;fontSize=19;fillColor=#e1d5e7;strokeColor=#9673a6;" vertex="1" parent="1">
          <mxGeometry x="920" y="280" width="120" height="60" as="geometry" />
        </mxCell>
        <mxCell id="chgxF6GkIX4FiYMFg66j-52" style="edgeStyle=orthogonalEdgeStyle;rounded=0;orthogonalLoop=1;jettySize=auto;html=1;entryX=0.5;entryY=1;entryDx=0;entryDy=0;endArrow=none;endFill=0;" edge="1" parent="1" source="chgxF6GkIX4FiYMFg66j-35" target="chgxF6GkIX4FiYMFg66j-16">
          <mxGeometry relative="1" as="geometry" />
        </mxCell>
        <mxCell id="chgxF6GkIX4FiYMFg66j-35" value="chỉnh sửa danh sách nhân viên" style="ellipse;whiteSpace=wrap;html=1;fontSize=18;" vertex="1" parent="1">
          <mxGeometry x="220" y="760" width="120" height="80" as="geometry" />
        </mxCell>
        <mxCell id="chgxF6GkIX4FiYMFg66j-60" value="" style="edgeStyle=orthogonalEdgeStyle;rounded=0;orthogonalLoop=1;jettySize=auto;html=1;endArrow=none;endFill=0;" edge="1" parent="1" source="chgxF6GkIX4FiYMFg66j-36" target="chgxF6GkIX4FiYMFg66j-32">
          <mxGeometry relative="1" as="geometry" />
        </mxCell>
        <mxCell id="chgxF6GkIX4FiYMFg66j-36" value="Dt ngày" style="ellipse;whiteSpace=wrap;html=1;fontSize=19;" vertex="1" parent="1">
          <mxGeometry x="570" y="390" width="120" height="80" as="geometry" />
        </mxCell>
        <mxCell id="chgxF6GkIX4FiYMFg66j-67" style="edgeStyle=orthogonalEdgeStyle;rounded=0;orthogonalLoop=1;jettySize=auto;html=1;endArrow=none;endFill=0;" edge="1" parent="1" source="chgxF6GkIX4FiYMFg66j-37" target="chgxF6GkIX4FiYMFg66j-27">
          <mxGeometry relative="1" as="geometry" />
        </mxCell>
        <mxCell id="chgxF6GkIX4FiYMFg66j-37" value="thông tin hóa đơn" style="ellipse;whiteSpace=wrap;html=1;fontSize=19;" vertex="1" parent="1">
          <mxGeometry x="920" y="505" width="120" height="80" as="geometry" />
        </mxCell>
        <mxCell id="chgxF6GkIX4FiYMFg66j-68" style="edgeStyle=orthogonalEdgeStyle;rounded=0;orthogonalLoop=1;jettySize=auto;html=1;endArrow=none;endFill=0;" edge="1" parent="1" source="chgxF6GkIX4FiYMFg66j-38" target="chgxF6GkIX4FiYMFg66j-37">
          <mxGeometry relative="1" as="geometry" />
        </mxCell>
        <mxCell id="chgxF6GkIX4FiYMFg66j-38" value="chi tiết hóa đơn" style="ellipse;whiteSpace=wrap;html=1;fontSize=18;" vertex="1" parent="1">
          <mxGeometry x="920" y="610" width="120" height="80" as="geometry" />
        </mxCell>
        <mxCell id="chgxF6GkIX4FiYMFg66j-39" value="" style="endArrow=none;html=1;rounded=0;exitX=0.5;exitY=1;exitDx=0;exitDy=0;entryX=0.5;entryY=0;entryDx=0;entryDy=0;endFill=0;" edge="1" parent="1" source="chgxF6GkIX4FiYMFg66j-1" target="chgxF6GkIX4FiYMFg66j-2">
          <mxGeometry width="50" height="50" relative="1" as="geometry">
            <mxPoint x="370" y="360" as="sourcePoint" />
            <mxPoint x="420" y="310" as="targetPoint" />
          </mxGeometry>
        </mxCell>
      </root>
    </mxGraphModel>
  </diagram>
</mxfile>
